<?xml version="1.0" encoding="UTF-8" standalone="no"?>
<!-- Created with Inkscape (http://www.inkscape.org/) -->

<svg
   xmlns:dc="http://purl.org/dc/elements/1.1/"
   xmlns:cc="http://creativecommons.org/ns#"
   xmlns:rdf="http://www.w3.org/1999/02/22-rdf-syntax-ns#"
   xmlns:svg="http://www.w3.org/2000/svg"
   xmlns="http://www.w3.org/2000/svg"
   xmlns:sodipodi="http://sodipodi.sourceforge.net/DTD/sodipodi-0.dtd"
   xmlns:inkscape="http://www.inkscape.org/namespaces/inkscape"
   id="svg2985"
   version="1.1"
   inkscape:version="0.92+devel (unknown)"
   width="192"
   height="192"
   sodipodi:docname="neuralcircuit.svg"
   viewBox="0 0 180 180">
  <metadata
     id="metadata2991">
    <rdf:RDF>
      <cc:Work
         rdf:about="">
        <dc:format>image/svg+xml</dc:format>
        <dc:type
           rdf:resource="http://purl.org/dc/dcmitype/StillImage" />
        <dc:title></dc:title>
      </cc:Work>
    </rdf:RDF>
  </metadata>
  <defs
     id="defs2989">
    <clipPath
       clipPathUnits="userSpaceOnUse"
       id="clipPath1027">
      <rect
         style="opacity:1;fill:#ffffff;fill-opacity:1;stroke-width:0.9375;stroke-miterlimit:1"
         id="rect1029"
         width="90"
         height="180"
         x="0"
         y="0" />
    </clipPath>
    <clipPath
       clipPathUnits="userSpaceOnUse"
       id="clipPath1033">
      <rect
         style="opacity:1;fill:#ffffff;fill-opacity:1;stroke-width:0.9375;stroke-miterlimit:1"
         id="rect1035"
         width="90"
         height="180"
         x="90"
         y="0" />
    </clipPath>
  </defs>
  <sodipodi:namedview
     pagecolor="#ffffff"
     bordercolor="#666666"
     borderopacity="1"
     objecttolerance="10"
     gridtolerance="10"
     guidetolerance="10"
     inkscape:pageopacity="0"
     inkscape:pageshadow="2"
     inkscape:window-width="1600"
     inkscape:window-height="818"
     id="namedview2987"
     showgrid="false"
     inkscape:zoom="2.8284272"
     inkscape:cx="81.018596"
     inkscape:cy="101.64998"
     inkscape:window-x="0"
     inkscape:window-y="0"
     inkscape:window-maximized="1"
     inkscape:current-layer="svg2985"
     inkscape:document-rotation="0" />
  <path
     style="fill:#0000ff;fill-opacity:1"
     d="M 46.29859,166.85856 23.79594,153.80271 23.77844,142.889 23.76094,131.97528 11.88047,125.28969 0,118.60411 0.006,91.665105 0.012,64.726101 l 11.88614,-6.72492 11.88614,-6.72492 0.006,-12.47857 0.006,-12.47857 23.01995,-13.27406 23.01995,-13.27405847 5.17303,2.93045497 c 2.84516,1.611752 7.38449,4.121797 10.08739,5.577878 l 4.91437,2.6474235 4.914368,-2.6474235 c 2.70291,-1.456081 7.242232,-3.958901 10.087412,-5.561821 l 5.17302,-2.91439797 23.01994,13.27232347 23.01996,13.272326 0.0105,12.464255 0.0105,12.46424 11.86127,6.72492 11.86127,6.72492 0.0156,26.899674 0.0156,26.899675 -11.86128,6.72491 -11.86127,6.72492 -0.0262,10.89009 -0.0262,10.89008 -21.46805,12.32864 c -11.80742,6.78077 -22.22674,12.78175 -23.15403,13.33552 -1.28354,0.76652 -4.06191,-0.38415 -11.639312,-4.8204 l -9.953308,-5.82727 -9.66109,5.65619 c -5.31361,3.1109 -10.08572,5.61795 -10.6047,5.57123 -0.51898,-0.0468 -11.06979,-5.96008 -23.44625,-13.1408 z m 31.94537,-0.29656 7.62825,-4.21087 V 129.8336 97.316095 h -3.04275 c -1.67352,0 -3.3305,0.46557 -3.68218,1.0346 -0.35168,0.56903 -2.23071,1.03461 -4.17563,1.03461 -6.7328,0 -8.84908,-7.62849 -3.26804,-11.78021 2.80058,-2.08335 3.01216,-2.09606 6.03282,-0.36245 1.72175,0.98815 4.26268,1.79663 5.64652,1.79663 h 2.51607 L 85.62697,53.258771 85.35491,17.47828 77.52346,13.222684 69.69201,8.9670865 50.89551,19.775649 32.09901,30.584212 32.08591,41.022821 c -0.0128,10.18751 0.0503,10.46749 2.62207,11.63928 1.44936,0.66037 4.01001,1.20067 5.69033,1.20067 3.73374,0 7.19355,3.23442 7.19355,6.72492 0,3.32032 -3.4046,6.72492 -6.72493,6.72492 -2.55477,0 -6.72493,-3.19133 -6.72493,-5.14645 0,-0.55442 -1.42528,-1.74507 -3.16729,-2.6459 -3.13567,-1.62152 -3.26995,-1.57849 -13.44986,4.31002 l -10.2825702,5.9479 v 9.63054 9.630554 l 2.8451602,-0.0329 c 1.56484,-0.0181 3.7489,-0.71645 4.85347,-1.55191 2.75863,-2.08653 5.36724,-1.90301 7.82044,0.55021 4.74646,4.74645 1.05141,12.243425 -5.39086,10.93764 -1.87181,-0.37941 -4.91639,-0.95145 -6.76575,-1.27122 l -3.3624602,-0.58139 v 8.280535 8.28054 l 10.3623302,5.91856 c 9.54763,5.45324 10.59451,5.8224 13.31565,4.69526 1.62433,-0.67281 3.46346,-2.34291 4.08695,-3.71133 1.6098,-3.53311 5.87282,-4.35787 9.31225,-1.80162 5.64883,4.19831 2.70636,11.67173 -4.59545,11.67173 -6.86815,0 -7.65364,1.09524 -7.63155,10.64107 l 0.0197,8.49908 18.34456,10.57906 c 10.08951,5.81849 18.75282,10.59058 19.2518,10.60468 0.49898,0.0141 4.33995,-1.86928 8.53548,-4.18527 z M 52.40791,150.25802 c -3.49372,-3.86051 -0.63769,-11.55782 4.28845,-11.55782 3.61979,0 4.34534,-2.15523 4.34534,-12.9077 V 115.36788 L 52.77685,111.77363 44.512,108.17942 44.5,93.442045 44.488,78.704631 l 8.25354,-5.43736 8.25354,-5.43736 0.0233,-10.60468 0.0233,-10.60468 h -2.63354 c -3.06824,0 -7.71251,-4.21528 -7.71251,-7.0001 0,-2.9554 3.85866,-6.44973 7.12219,-6.44973 2.95851,0 6.32767,2.71846 6.32767,5.10558 0,0.72684 1.16393,2.23708 2.58651,3.35608 2.52871,1.98907 2.58651,2.34395 2.58651,15.87775 v 13.8432 l -8.79406,5.99781 -8.79406,5.997824 -8e-5,9.61743 -8e-5,9.617455 8.79414,4.04366 8.79414,4.04368 v 14.35145 c 0,13.97052 -0.0687,14.41597 -2.58651,16.78137 -1.42258,1.33645 -2.58651,3.19208 -2.58651,4.12366 0,5.0778 -8.29249,8.13714 -11.7376,4.33035 z m 77.04366,9.9102 18.45971,-10.60469 0.0186,-8.49907 c 0.0209,-9.55597 -0.76155,-10.64108 -7.67295,-10.64108 -7.42705,0 -10.31231,-7.39292 -4.55515,-11.67173 3.43943,-2.55624 7.70246,-1.73148 9.31225,1.80162 0.6235,1.36842 2.46262,3.03853 4.08695,3.71133 2.72115,1.12714 3.76801,0.75799 13.31567,-4.69525 l 10.36233,-5.91856 v -8.28054 -8.280535 l -3.36247,0.58139 c -1.84936,0.31977 -4.89395,0.89181 -6.76575,1.27121 -6.44226,1.305785 -10.13732,-6.19119 -5.39086,-10.93764 2.4532,-2.45321 5.0618,-2.63673 7.82045,-0.55021 1.10456,0.83545 3.28862,1.5338 4.85346,1.55191 l 2.84517,0.0329 v -9.593084 -9.59307 l -10.29526,-5.97881 c -10.18255,-5.91336 -10.32978,-5.96095 -13.44986,-4.3475 -1.73504,0.89722 -3.15461,2.08493 -3.15461,2.63935 0,1.95511 -4.17016,5.14644 -6.72492,5.14644 -3.32035,0 -6.72494,-3.4046 -6.72494,-6.72492 0,-3.49049 3.4598,-6.72492 7.19355,-6.72492 1.68032,0 4.24096,-0.5403 5.69032,-1.20067 2.57239,-1.17205 2.63474,-1.44945 2.61661,-11.63928 l -0.0186,-10.438608 -18.80244,-10.802356 -18.80244,-10.8023575 -7.82003,4.2493925 -7.820032,4.249391 -0.27206,35.780498 -0.27206,35.780504 h 2.51607 c 1.38385,0 3.924782,-0.80849 5.646532,-1.79663 3.02066,-1.73361 3.23223,-1.72091 6.03281,0.36245 5.58106,4.15172 3.46476,11.78021 -3.26805,11.78021 -1.9449,0 -3.82393,-0.46558 -4.17562,-1.03462 -0.35167,-0.56902 -2.008652,-1.03459 -3.682172,-1.03459 h -3.04275 v 32.510955 32.51098 l 7.500882,4.19261 c 4.12548,2.30594 7.9151,4.20379 8.42139,4.21744 0.50628,0.0136 9.2274,-4.74729 19.38024,-10.57987 z m -11.4663,-10.28247 c -1.16024,-1.24536 -2.10952,-3.0265 -2.10952,-3.95808 0,-0.93158 -1.16393,-2.78721 -2.58651,-4.12366 -2.51785,-2.3654 -2.58651,-2.81085 -2.58651,-16.78137 v -14.35145 l 8.79413,-4.04368 8.79415,-4.04366 -9e-5,-9.617455 -7e-5,-9.61743 -8.79407,-5.997824 -8.79405,-5.99781 v -13.8432 c 0,-13.5338 0.0578,-13.88868 2.58651,-15.87775 1.42258,-1.119 2.58651,-2.71013 2.58651,-3.53585 0,-3.55146 6.65603,-6.321776 9.93251,-4.13402 1.37434,0.91768 3.51735,4.83491 3.51735,6.42944 0,2.13992 -5.06276,6.2286 -7.71252,6.2286 h -2.63353 l 0.0233,10.60468 0.0233,10.60468 8.25353,5.43736 8.25353,5.43736 -0.012,14.737414 -0.012,14.737375 -8.26485,3.59421 -8.26485,3.59425 v 10.42462 c 8e-5,10.75247 0.72562,12.9077 4.34542,12.9077 2.81028,0 6.0007,3.76524 6.0007,7.08186 0,5.90724 -7.22449,8.52153 -11.34034,4.10369 z"
     id="path3877"
     inkscape:connector-curvature="0"
     clip-path="url(#clipPath1033)" />
  <path
     style="fill:#ff0000;stroke-width:0.99999994;fill-opacity:1"
     d="M 46.298589,166.85856 23.795939,153.80271 23.778439,142.889 23.760939,131.97529 11.880463,125.2897 0,118.60412 0.006,91.665105 0.012,64.726106 l 11.88614,-6.72492 11.886139,-6.72492 0.006,-12.478569 0.006,-12.47857 23.019949,-13.27406 23.01995,-13.27405747 5.173029,2.93045497 c 2.84516,1.611752 7.38449,4.121797 10.08739,5.577878 l 4.914369,2.6474225 4.914371,-2.6474225 c 2.702906,-1.456081 7.242223,-3.958901 10.087403,-5.561821 l 5.17303,-2.91439797 23.01993,13.27232347 23.01996,13.272325 0.0105,12.464255 0.0105,12.464239 11.86127,6.72492 11.86128,6.72492 0.0156,26.899669 0.0156,26.899685 -11.86129,6.7249 -11.86126,6.72493 -0.0262,10.89009 -0.0263,10.89007 -21.46805,12.32865 c -11.80742,6.78076 -22.22674,12.78175 -23.15403,13.33551 -1.28354,0.76653 -4.06191,-0.38415 -11.639313,-4.8204 l -9.953305,-5.82726 -9.661091,5.65619 c -5.313608,3.11089 -10.085719,5.61795 -10.604699,5.57122 -0.51898,-0.0468 -11.069788,-5.96007 -23.446248,-13.1408 z m 31.945368,-0.29656 7.628249,-4.21086 V 129.8336 97.316095 h -3.04275 c -1.673519,0 -3.330499,0.46557 -3.682179,1.0346 -0.35168,0.56903 -2.23071,1.03461 -4.17563,1.03461 -6.7328,0 -8.849079,-7.62849 -3.26804,-11.78021 2.80058,-2.08335 3.01216,-2.09606 6.03282,-0.36245 1.72175,0.98815 4.26268,1.79663 5.64652,1.79663 h 2.51607 l -0.27205,-35.780499 -0.27206,-35.78049 -7.83145,-4.255595 -7.83145,-4.2555975 -18.796499,10.8085615 -18.796499,10.808563 -0.0131,10.438608 c -0.0128,10.18751 0.0503,10.46749 2.62207,11.63928 1.44936,0.66037 4.01001,1.20067 5.690329,1.20067 3.733741,0 7.19355,3.23442 7.19355,6.72492 0,3.320319 -3.4046,6.724919 -6.72493,6.724919 -2.55477,0 -6.724929,-3.19133 -6.724929,-5.146449 0,-0.55442 -1.425281,-1.74507 -3.16729,-2.6459 -3.13567,-1.62152 -3.26995,-1.578491 -13.44986,4.310019 l -10.28257,5.947901 v 9.630539 9.63055 l 2.84516,-0.0329 c 1.564841,-0.0181 3.748901,-0.71645 4.853471,-1.55191 2.758629,-2.08653 5.367239,-1.90301 7.820439,0.55021 4.74646,4.74645 1.05141,12.243435 -5.390859,10.93764 -1.871811,-0.37941 -4.91639,-0.95145 -6.76575,-1.27122 l -3.362461,-0.58139 v 8.280535 8.28055 l 10.36233,5.91856 c 9.54763,5.45324 10.594509,5.8224 13.31565,4.69526 1.62433,-0.67282 3.46346,-2.34292 4.08695,-3.71133 1.6098,-3.53312 5.87282,-4.35787 9.31225,-1.80162 5.648829,4.1983 2.70636,11.67172 -4.59545,11.67172 -6.868151,0 -7.65364,1.09525 -7.63155,10.64108 l 0.0197,8.49908 18.344559,10.57906 c 10.08951,5.81849 18.75282,10.59058 19.2518,10.60468 0.498979,0.0141 4.33995,-1.86928 8.535479,-4.18528 z M 52.407908,150.25803 c -3.49372,-3.86052 -0.63769,-11.55782 4.28845,-11.55782 3.61979,0 4.34534,-2.15523 4.34534,-12.9077 v -10.42463 l -8.26485,-3.59424 -8.264849,-3.59421 -0.012,-14.737385 -0.012,-14.73741 8.253539,-5.43736 8.25354,-5.43736 0.0233,-10.604679 0.0233,-10.60468 h -2.63354 c -3.06824,0 -7.71251,-4.215279 -7.71251,-7.0001 0,-2.955399 3.85866,-6.449729 7.12219,-6.449729 2.95851,0 6.32767,2.718459 6.32767,5.105579 0,0.72684 1.16393,2.237081 2.58651,3.356081 2.52871,1.989069 2.586509,2.343949 2.586509,15.877748 v 13.8432 l -8.794059,5.99781 -8.79406,5.99782 -8e-5,9.61743 -7.9e-5,9.617465 8.794139,4.04366 8.794139,4.04368 v 14.35144 c 0,13.97053 -0.0687,14.41598 -2.586509,16.78138 -1.42258,1.33645 -2.58651,3.19208 -2.58651,4.12366 0,5.0778 -8.292489,8.13714 -11.7376,4.33035 z m 77.043662,9.9102 18.4597,-10.60469 0.0186,-8.49907 c 0.0209,-9.55598 -0.76155,-10.64109 -7.67295,-10.64109 -7.42704,0 -10.3123,-7.39291 -4.55514,-11.67172 3.43943,-2.55624 7.70245,-1.73148 9.31224,1.80162 0.62351,1.36841 2.46263,3.03852 4.08696,3.71133 2.72115,1.12714 3.76801,0.75799 13.31567,-4.69525 l 10.36233,-5.91856 v -8.28054 -8.280545 l -3.36248,0.58139 c -1.84936,0.31978 -4.89394,0.89181 -6.76575,1.27122 -6.44225,1.305785 -10.13732,-6.1912 -5.39086,-10.93765 2.45321,-2.45321 5.06181,-2.63673 7.82046,-0.55021 1.10455,0.83545 3.28862,1.5338 4.85346,1.55191 l 2.84517,0.0329 v -9.593077 -9.593069 l -10.29526,-5.97881 c -10.18255,-5.91336 -10.32978,-5.960951 -13.44986,-4.3475 -1.73504,0.89722 -3.15462,2.08493 -3.15462,2.63935 0,1.95511 -4.17016,5.14644 -6.72491,5.14644 -3.32035,0 -6.72494,-3.4046 -6.72494,-6.72492 0,-3.49049 3.4598,-6.72492 7.19355,-6.72492 1.68032,0 4.24096,-0.5403 5.69032,-1.20067 2.57238,-1.17205 2.63474,-1.44945 2.61661,-11.639279 l -0.0186,-10.438608 -18.80243,-10.802356 -18.80245,-10.8023565 -7.82002,4.2493915 -7.820036,4.249391 -0.272062,35.780497 -0.272054,35.780506 h 2.516063 c 1.383853,0 3.924789,-0.80849 5.646539,-1.79663 3.02066,-1.73361 3.23222,-1.72091 6.03281,0.36245 5.58106,4.15172 3.46475,11.78021 -3.26805,11.78021 -1.9449,0 -3.82393,-0.46558 -4.17563,-1.03463 -0.35166,-0.56901 -2.008647,-1.03458 -3.682169,-1.03458 h -3.04275 v 32.510955 32.51097 l 7.500879,4.19262 c 4.12549,2.30594 7.91511,4.20378 8.4214,4.21743 0.50627,0.0136 9.2274,-4.74728 19.38023,-10.57986 z m -11.4663,-10.28248 c -1.16024,-1.24535 -2.10953,-3.02649 -2.10953,-3.95807 0,-0.93158 -1.16392,-2.78721 -2.5865,-4.12366 -2.51786,-2.3654 -2.58652,-2.81085 -2.58652,-16.78138 V 110.6712 l 8.79414,-4.04368 8.79415,-4.04366 -9e-5,-9.617465 -8e-5,-9.61743 -8.79407,-5.99782 -8.79405,-5.99781 v -13.8432 c 0,-13.533799 0.0579,-13.888679 2.58652,-15.877748 1.42258,-1.119 2.5865,-2.71013 2.5865,-3.53585 0,-3.55146 6.65604,-6.321777 9.93252,-4.13402 1.37433,0.917679 3.51735,4.83491 3.51735,6.429439 0,2.139921 -5.06277,6.2286 -7.71253,6.2286 h -2.63353 l 0.0233,10.60468 0.0233,10.604679 8.25353,5.43736 8.25353,5.43736 -0.012,14.73741 -0.012,14.737385 -8.26485,3.59421 -8.26485,3.59424 v 10.42463 c 8e-5,10.75247 0.72562,12.9077 4.34542,12.9077 2.81028,0 6.0007,3.76524 6.0007,7.08185 0,5.90725 -7.22449,8.52153 -11.34034,4.10369 z"
     id="path3877-3"
     inkscape:connector-curvature="0"
     clip-path="url(#clipPath1027)"
     transform="translate(3e-6,-7e-6)" />
</svg>
